<?xml version="1.0" standalone="no"?>
<!DOCTYPE svg PUBLIC "-//W3C//DTD SVG 20010904//EN"
 "http://www.w3.org/TR/2001/REC-SVG-20010904/DTD/svg10.dtd">
<svg version="1.0" xmlns="http://www.w3.org/2000/svg"
 width="1280.000000pt" height="1018.000000pt" viewBox="0 0 1280.000000 1018.000000"
 preserveAspectRatio="xMidYMid meet">
<metadata>
Created by potrace 1.15, written by Peter Selinger 2001-2017
</metadata>
<g transform="translate(0.000000,1018.000000) scale(0.100000,-0.100000)"
fill="#000000" stroke="none">
<path d="M5975 10174 c-535 -17 -949 -40 -1375 -75 -271 -22 -741 -68 -751
-74 -3 -2 -93 -11 -200 -20 -303 -24 -405 -43 -518 -98 -89 -44 -153 -106
-270 -261 -394 -526 -742 -1174 -1028 -1921 -76 -199 -178 -482 -205 -575 -11
-36 -27 -73 -36 -82 -25 -29 -66 -22 -101 17 -35 40 -101 174 -127 257 -11 38
-25 60 -41 69 -12 7 -23 16 -23 20 0 15 -136 50 -230 59 -103 10 -213 3 -460
-30 -85 -11 -186 -25 -224 -30 -37 -5 -93 -21 -123 -36 -229 -112 -338 -488
-200 -688 24 -34 112 -77 222 -108 76 -22 93 -22 345 -18 526 8 620 6 630 -10
17 -26 11 -52 -55 -265 -66 -212 -97 -329 -115 -445 -13 -85 -37 -538 -45
-865 -10 -381 19 -1340 44 -1471 67 -348 90 -858 91 -1984 0 -738 9 -972 46
-1212 l6 -38 -39 0 c-52 0 -83 -23 -83 -62 0 -47 46 -81 212 -160 l148 -69
2747 10 c1512 6 3583 13 4603 16 2904 9 3105 11 3170 30 66 20 237 106 268
135 46 43 22 59 -115 79 -77 12 -119 27 -126 45 -3 6 -1 36 3 66 21 144 32
516 36 1300 5 1043 16 1450 44 1616 67 403 83 736 77 1599 -4 680 -4 676 -53
920 -24 124 -88 370 -153 588 -48 163 -56 200 -44 204 8 3 92 2 186 -3 350
-18 452 -7 596 65 68 35 79 44 85 71 10 51 -5 389 -20 458 -24 110 -85 199
-168 247 -43 24 -220 73 -365 99 -110 21 -331 22 -370 1 -30 -15 -86 -87 -120
-154 -15 -28 -21 -59 -21 -103 0 -110 -37 -208 -78 -208 -32 0 -81 41 -93 78
-27 84 -225 608 -286 757 -186 457 -381 851 -564 1142 -360 571 -446 689 -578
797 -37 30 -96 70 -133 91 -67 36 -71 37 -322 65 -932 106 -1881 158 -3011
164 -324 2 -635 2 -690 0z m1160 -114 c630 -18 1024 -39 1785 -95 496 -37 513
-39 587 -75 83 -41 113 -89 113 -179 0 -44 -4 -63 -14 -67 -14 -6 -347 11
-951 46 -584 34 -1084 43 -2089 37 -1214 -7 -2226 -42 -2834 -98 -131 -12
-174 -5 -207 31 -17 19 -17 24 7 122 l24 103 105 12 c119 14 488 46 794 68
116 9 257 20 315 25 706 64 1618 91 2365 70z m-3864 -267 c6 -19 8 -53 5 -74
-3 -22 -70 -182 -147 -357 -401 -901 -589 -1416 -724 -1977 -71 -294 -127
-379 -485 -735 -339 -337 -362 -367 -420 -555 -60 -195 -111 -626 -129 -1095
-7 -195 -11 -223 -35 -295 -33 -96 -94 -194 -151 -241 -23 -19 -45 -34 -50
-34 -4 0 -4 75 -1 167 4 93 11 287 16 433 16 412 50 723 106 959 48 206 115
435 145 495 78 155 235 310 444 436 l81 49 64 168 c350 930 658 1670 763 1834
48 75 76 145 137 339 63 202 93 278 137 352 37 62 131 154 178 174 36 15 49 6
66 -43z m6774 -568 c380 -879 555 -1352 752 -2029 19 -67 48 -156 65 -199 l31
-77 176 -147 c414 -346 539 -515 589 -798 12 -66 19 -231 10 -240 -3 -3 -15
45 -27 107 -36 182 -51 230 -84 271 -82 105 -252 208 -427 260 -110 34 -156
44 -324 72 -76 13 -140 26 -143 28 -2 3 -24 139 -48 303 -134 900 -255 1368
-550 2126 -168 431 -245 676 -261 835 -11 109 5 108 36 -2 16 -59 101 -269
205 -510z m-19 583 c32 -15 56 -36 75 -66 34 -54 89 -183 89 -209 0 -31 71
-194 198 -453 256 -523 550 -1236 757 -1834 78 -225 169 -339 303 -381 109
-34 129 -46 183 -112 184 -221 284 -473 368 -933 46 -251 60 -359 72 -547 12
-189 9 -807 -4 -819 -14 -15 -41 11 -118 114 -69 91 -78 108 -89 169 -25 144
-40 289 -60 583 -22 329 -38 482 -70 657 -24 136 -46 196 -119 333 -55 103
-61 109 -310 355 -140 137 -284 289 -320 336 l-67 86 -113 344 c-197 601 -272
819 -352 1026 -44 111 -79 204 -79 207 0 11 -95 225 -195 442 -111 237 -147
322 -195 459 -34 96 -70 223 -70 247 0 26 58 24 116 -4z m-6651 -172 c-9 -61
-44 -164 -120 -346 -31 -74 -74 -184 -96 -244 -22 -61 -64 -171 -93 -245 -178
-451 -334 -1016 -435 -1576 -47 -257 -80 -532 -81 -657 0 -46 -4 -61 -22 -79
-39 -37 -119 -67 -223 -84 -341 -54 -590 -187 -703 -374 -17 -29 -22 -32 -28
-18 -20 53 35 188 128 312 74 99 235 258 356 350 132 100 212 199 291 359 66
136 95 221 176 516 108 393 247 789 437 1240 124 295 402 909 410 904 6 -4 7
-28 3 -58z m2270 -5 c-11 -10 -231 -55 -345 -71 -193 -26 -769 -70 -934 -70
-56 0 -173 -7 -261 -15 -213 -20 -426 -20 -493 0 -48 15 -70 30 -59 41 10 11
671 69 1067 95 356 23 1042 37 1025 20z m2806 -1 c156 -5 331 -14 389 -20 58
-6 200 -15 316 -20 117 -6 250 -17 296 -25 96 -16 210 -55 210 -70 0 -5 -22
-16 -49 -23 -52 -14 -277 -9 -388 9 -65 10 -233 20 -760 44 -352 16 -569 34
-722 61 -154 26 -159 30 -53 38 52 3 111 8 130 9 79 8 365 6 631 -3z m489
-195 c486 -26 727 -47 756 -63 32 -19 -443 -14 -876 8 -780 40 -950 52 -1020
70 -53 14 814 3 1140 -15z m-3492 9 c-9 -8 -230 -31 -368 -38 -692 -34 -1143
-58 -1333 -72 -169 -13 -231 -14 -239 -6 -8 8 -4 14 17 22 46 17 667 71 1025
89 182 9 906 14 898 5z m4947 -159 c11 -19 16 -37 13 -41 -4 -3 -16 12 -28 35
-25 50 -11 55 15 6z m-2090 -74 c861 -32 1137 -47 1210 -66 33 -8 93 -32 133
-53 l74 -37 33 -77 c98 -229 218 -592 356 -1083 34 -121 70 -249 80 -285 39
-135 14 -254 -61 -293 -30 -16 -48 -17 -130 -11 -52 4 -160 5 -240 3 -291 -8
-364 -6 -393 14 -29 19 -34 42 -16 80 9 21 17 24 67 24 102 0 142 43 142 153
0 114 -37 221 -139 404 -120 215 -246 307 -479 352 -157 30 -491 11 -612 -35
-117 -45 -207 -125 -283 -253 -61 -103 -146 -345 -167 -474 -15 -93 -22 -97
-211 -108 l-160 -9 -25 25 c-20 20 -27 41 -35 99 -5 41 -20 117 -34 169 -81
312 -222 501 -412 553 -91 25 -395 59 -538 60 -153 1 -234 -16 -335 -69 -83
-43 -133 -90 -195 -185 -127 -192 -207 -386 -208 -504 -2 -112 43 -155 160
-155 78 0 148 24 324 110 249 122 287 134 409 134 96 1 110 -2 160 -28 30 -16
66 -37 80 -48 31 -25 112 -119 106 -125 -2 -2 -44 16 -93 40 -119 60 -172 74
-284 76 -146 2 -216 -31 -371 -178 l-86 -82 -874 -24 c-480 -13 -943 -27
-1028 -30 -85 -4 -258 -6 -385 -6 -170 0 -275 -5 -405 -21 -227 -26 -346 -22
-423 15 -92 46 -93 49 -67 164 63 276 172 648 330 1128 39 116 74 235 80 265
14 77 63 171 111 215 23 20 69 50 104 66 110 52 171 60 530 69 182 5 530 13
775 20 245 6 497 12 560 14 267 7 2618 -3 2865 -13z m-5585 -60 c0 -5 -84
-204 -186 -443 -268 -624 -448 -1063 -579 -1408 -88 -233 -166 -380 -200 -380
-30 0 -15 83 51 290 157 489 378 1024 591 1430 123 234 233 432 266 478 28 38
57 55 57 33z m7861 -176 c204 -311 420 -756 594 -1220 167 -445 259 -734 241
-752 -4 -4 -19 0 -34 9 -58 35 -83 82 -157 300 -156 457 -226 634 -454 1152
-108 243 -215 497 -249 586 -9 25 4 8 59 -75z m1764 -1574 c125 -33 212 -64
241 -86 18 -13 16 -14 -24 -15 -55 0 -152 20 -332 70 -80 22 -159 40 -177 40
-32 0 -41 8 -25 25 15 16 207 -4 317 -34z m-11197 -30 c28 -1 52 -5 52 -10 0
-5 -19 -17 -42 -26 -34 -13 -94 -19 -278 -26 -313 -11 -332 -13 -525 -65 -103
-27 -135 -30 -135 -11 0 43 91 79 289 112 107 19 365 34 496 29 50 -1 114 -3
143 -3z m209 -328 c8 -13 38 -40 67 -60 75 -54 106 -84 106 -106 0 -27 -101
-129 -160 -161 -38 -21 -58 -26 -81 -21 -46 10 -53 42 -34 139 23 115 79 287
83 257 2 -14 11 -35 19 -48z m5141 -5 c16 -2 16 -3 -13 -46 -83 -126 -71 -325
27 -428 l29 -31 -678 -6 c-690 -6 -888 -11 -1943 -47 -581 -20 -890 -33 -1117
-46 l-113 -7 0 159 c0 162 14 265 44 322 14 27 21 30 98 40 126 18 318 30 708
46 324 14 552 21 1400 46 220 6 1495 5 1558 -2z m2642 -8 c626 -19 1104 -41
1161 -54 88 -20 147 -59 171 -114 20 -43 20 -56 12 -198 -6 -101 -14 -157 -23
-168 -17 -21 -151 -21 -996 -1 -1017 23 -1731 36 -2181 37 -277 0 -432 5 -455
12 -51 17 -50 45 5 104 25 27 49 63 52 80 9 46 -40 186 -83 233 -41 46 -38 68
9 70 434 19 1705 18 2328 -1z m2635 -94 c21 -21 23 -28 14 -55 -23 -64 -104
-59 -139 9 -18 34 -18 38 -2 53 26 27 98 22 127 -7z m-5026 -102 c7 -19 10
-39 6 -42 -10 -10 -45 37 -45 59 0 32 25 21 39 -17z m5095 -73 c9 -14 -38 -41
-54 -31 -11 7 -11 11 -1 24 15 17 47 21 55 7z m-3456 -347 c7 -2 25 -30 40
-61 l27 -58 -3 -432 c-2 -385 -4 -438 -20 -480 l-18 -48 -489 -6 c-829 -10
-2760 -10 -2900 1 -108 8 -239 31 -252 44 -2 2 -12 81 -23 177 -23 197 -36
582 -26 740 l8 107 201 7 c445 17 3407 25 3455 9z m-3799 -4 c21 -11 25 -53
42 -520 13 -381 20 -446 52 -512 14 -29 30 -65 36 -79 9 -24 16 -27 83 -33
254 -23 621 -29 1748 -27 1578 3 1673 4 1750 19 36 7 94 15 130 20 l65 7 19
75 c17 68 20 120 23 550 2 261 5 480 7 486 6 17 249 29 276 14 21 -11 22 -17
16 -88 -26 -296 -111 -619 -235 -901 -61 -138 -73 -156 -113 -177 -56 -29
-286 -34 -1758 -40 -1430 -6 -1657 -3 -1930 27 l-95 10 -43 47 c-51 56 -129
211 -170 337 -65 200 -153 608 -152 706 0 51 20 72 76 80 76 10 154 10 173 -1z
m5306 -10 c328 -9 437 -19 544 -51 l41 -12 0 -144 c0 -173 -18 -352 -65 -653
-20 -124 -47 -308 -60 -410 -56 -428 -85 -551 -156 -676 -52 -92 -4 -84 -560
-94 -1362 -25 -4312 -50 -5771 -50 l-868 1 -30 97 c-42 137 -65 240 -100 452
-17 102 -44 250 -61 330 -69 333 -128 910 -112 1093 l5 57 62 0 c33 0 194 7
356 15 439 22 1070 31 1099 16 36 -20 50 -70 62 -213 6 -73 17 -148 25 -167 8
-20 38 -119 66 -221 61 -223 87 -298 145 -413 49 -99 89 -158 127 -188 44 -35
458 -42 2136 -36 1298 5 1519 8 1605 22 120 18 164 32 187 56 28 28 114 196
152 294 65 169 156 562 156 674 0 106 34 171 109 211 33 17 59 19 301 19 146
0 418 -4 605 -9z m-7980 -312 c34 -27 65 -92 65 -138 0 -68 -27 -143 -64 -177
-20 -18 -42 -33 -51 -33 -22 0 -45 41 -65 120 -10 38 -27 87 -38 109 -20 37
-20 39 -2 68 43 71 104 91 155 51z m9055 -353 c10 -12 8 -18 -11 -35 -54 -44
-86 -35 -64 18 15 35 52 44 75 17z m-8491 -32 c34 -32 34 -32 32 -129 l-1 -72
-187 -4 c-189 -5 -480 5 -540 18 -32 6 -32 7 -18 34 23 44 81 88 138 104 74
21 107 26 332 51 110 12 203 23 207 24 4 0 21 -11 37 -26z m8781 -19 c43 -9
82 -25 98 -40 24 -21 25 -23 8 -24 -11 0 -65 15 -120 34 -56 19 -126 39 -156
45 -55 10 -54 10 22 6 43 -3 110 -12 148 -21z m185 -118 c0 -26 -33 -46 -45
-27 -12 20 7 53 28 49 9 -2 17 -12 17 -22z m-9515 -206 c43 -43 14 -97 -59
-107 -76 -10 -94 36 -37 93 39 39 67 43 96 14z m9375 -180 c50 -6 53 -8 20 -9
-22 -1 -119 -6 -215 -11 -188 -11 -464 -3 -436 12 44 25 457 30 631 8z m-8885
-35 c114 -36 129 -44 140 -84 12 -44 13 -81 1 -100 -16 -25 -66 -14 -171 39
-133 67 -179 68 -180 5 -1 -54 -70 -79 -168 -59 -30 6 -31 7 -25 54 5 43 3 51
-21 75 l-27 27 -123 -7 c-105 -6 -124 -5 -135 9 -17 20 -15 21 119 40 164 24
165 24 355 21 135 -2 194 -7 235 -20z m-492 -111 c48 -31 15 -47 -88 -42 -57
3 -65 5 -65 23 0 14 11 23 40 31 44 13 78 9 113 -12z m-21 -185 c70 -26 129
-116 119 -183 -3 -23 -10 -85 -15 -139 -7 -81 -12 -102 -31 -123 -23 -24 -54
-29 -97 -18 -21 6 -22 8 -8 35 23 43 18 84 -15 142 -33 59 -38 101 -16 133 13
18 13 27 0 69 -17 60 -17 60 2 79 18 19 24 19 61 5z m9977 -340 c36 -25 86
-86 133 -161 55 -89 67 -268 37 -528 -18 -154 -108 -708 -129 -790 -7 -30 -25
-131 -40 -225 -43 -274 -92 -388 -186 -436 -46 -23 -51 -22 -155 14 -40 14
-112 30 -160 35 -53 5 -439 6 -939 2 -467 -4 -2245 -13 -3950 -19 -3493 -13
-4718 -24 -4840 -43 l-80 -12 70 -8 c155 -16 751 -28 1485 -29 426 0 784 -4
795 -9 l20 -9 -20 0 c-11 -1 -105 -6 -210 -12 -104 -6 -300 -12 -435 -13 -274
-2 -313 -9 -392 -70 -40 -30 -50 -33 -118 -33 -48 0 -90 -6 -115 -17 -35 -15
-165 -94 -165 -101 0 -1 7 -17 16 -34 14 -28 14 -35 2 -47 -11 -12 -21 -12
-58 -1 -25 7 -44 16 -43 20 16 62 13 147 -6 147 -4 0 -16 -17 -25 -38 -16 -35
-16 -42 -3 -74 l15 -35 -49 18 c-68 26 -79 25 -79 -11 0 -45 -25 -38 -91 25
-55 52 -84 65 -105 46 -22 -20 -116 -36 -209 -36 -88 1 -107 4 -163 29 -83 38
-113 75 -188 231 -107 222 -170 444 -248 875 -103 573 -128 866 -87 1050 24
107 73 226 106 259 l25 25 27 -20 c32 -24 64 -84 95 -176 l22 -67 75 -34 c317
-144 626 -195 1335 -219 729 -26 5905 -9 6991 23 515 14 1000 47 1125 74 36 8
146 26 245 40 274 39 365 66 464 140 71 52 104 105 112 181 10 95 34 114 93
73z m-193 -113 c-39 -89 -126 -130 -361 -171 -85 -14 -189 -35 -230 -45 -316
-78 -1792 -105 -5660 -103 -2702 1 -3031 5 -3333 42 -294 37 -425 74 -535 155
-48 36 -92 83 -92 99 0 7 86 -11 231 -48 262 -67 241 -64 719 -95 767 -49
1797 -64 3345 -51 3366 30 4605 57 5080 112 459 53 511 62 660 110 50 16 113
42 140 59 l50 29 3 -24 c2 -13 -6 -44 -17 -69z m-7534 -2092 c28 -8 20 -24
-12 -24 -32 0 -56 10 -49 21 6 10 29 11 61 3z m701 0 c12 -4 22 -11 22 -16 0
-14 -53 -5 -58 10 -4 13 2 15 36 6z m-1858 -124 c0 -5 -13 -10 -29 -10 -17 0
-33 5 -36 10 -4 6 8 10 29 10 20 0 36 -4 36 -10z m-235 -220 c-27 -12 -77 -12
-95 0 -10 7 5 10 50 9 45 0 59 -3 45 -9z m-1225 -100 c0 -16 -4 -30 -8 -30 -5
0 -7 14 -4 30 2 17 6 30 8 30 2 0 4 -13 4 -30z m9051 -122 c8 -15 13 -166 16
-512 4 -500 11 -635 39 -763 14 -66 14 -74 -1 -107 -12 -24 -31 -42 -63 -58
-44 -22 -60 -23 -262 -25 -118 -1 -465 -6 -770 -12 -612 -11 -4157 -19 -5859
-12 -956 4 -1087 7 -1115 20 -38 20 -43 42 -18 78 17 25 33 88 48 188 3 17 7
297 11 622 l5 593 957 3 c526 1 2316 3 3978 5 l3022 2 12 -22z m393 -398 c-11
-252 -21 -263 -23 -25 0 121 2 231 6 245 14 51 24 -72 17 -220z m590 199 c52
-14 39 -21 -96 -48 -79 -15 -144 -21 -251 -21 -79 0 -147 3 -150 6 -3 4 -2 15
3 25 11 20 59 38 134 50 66 10 309 2 360 -12z m-9295 -196 c0 -126 -4 -200 -9
-188 -10 23 -13 379 -3 388 3 4 8 7 10 7 2 0 3 -93 2 -207z m9459 175 c17 -17
15 -63 -3 -78 -22 -18 -35 -3 -35 39 0 50 13 64 38 39z m-9579 -32 c63 -29 50
-80 -32 -120 -68 -34 -121 -35 -221 -8 -43 12 -118 27 -167 33 -79 10 -91 10
-126 -7 -34 -17 -38 -23 -41 -61 -2 -24 -8 -43 -13 -43 -18 0 -49 84 -49 136
l0 51 43 14 c31 10 103 14 274 14 127 0 235 3 238 7 9 9 61 0 94 -16z"/>
<path d="M4475 8323 c-76 -5 -312 -33 -379 -44 -214 -37 -358 -203 -435 -499
-27 -103 -85 -401 -78 -405 2 -2 277 7 942 31 248 9 503 17 567 18 126 1 156
12 186 67 32 59 -6 214 -95 394 -132 265 -210 351 -367 405 -51 17 -233 43
-275 38 -9 -1 -38 -3 -66 -5z"/>
<path d="M2265 5651 c-51 -23 -100 -74 -92 -95 8 -19 91 -22 150 -5 47 13 39
29 -16 29 l-42 1 38 30 c64 53 42 77 -38 40z"/>
<path d="M2002 5629 c-18 -5 -62 -26 -98 -46 -56 -30 -63 -38 -49 -46 23 -12
137 6 199 33 97 41 55 90 -52 59z"/>
<path d="M2417 5601 c-9 -16 -17 -36 -17 -45 0 -28 28 -17 39 15 21 62 8 80
-22 30z"/>
<path d="M2091 5071 c-26 -37 -26 -53 0 -77 36 -32 74 16 59 76 -8 35 -34 36
-59 1z"/>
<path d="M2370 5091 c0 -15 64 -57 96 -64 18 -3 43 -9 58 -13 49 -12 27 15
-36 44 -71 33 -118 47 -118 33z"/>
<path d="M5545 3890 c-1844 -12 -3922 -30 -4025 -34 -170 -7 -258 -59 -268
-156 -5 -54 17 -128 47 -160 9 -9 21 -25 27 -35 10 -18 28 -18 470 -6 280 7
1562 15 3289 21 2709 8 4688 21 5665 37 250 4 561 6 690 5 129 -2 277 1 328 6
90 9 94 11 128 47 42 46 45 90 12 175 -21 53 -26 59 -58 64 -19 3 -60 13 -90
21 -44 13 -100 16 -290 14 -129 -1 -1256 1 -2505 3 -1248 3 -2787 2 -3420 -2z"/>
<path d="M2681 2233 c-23 -16 -23 -17 -5 -24 29 -11 122 -10 129 1 23 36 -79
55 -124 23z"/>
<path d="M2315 2214 c23 -17 56 -15 63 4 2 8 -9 12 -40 12 -40 -1 -42 -2 -23
-16z"/>
<path d="M1822 2115 c4 -30 68 -79 68 -52 0 18 -47 77 -62 77 -5 0 -8 -11 -6
-25z"/>
</g>
</svg>
